<svg width="101" height="101" viewBox="0 0 101 101" fill="none" xmlns="http://www.w3.org/2000/svg">
<path d="M50.5 2.5C77.0097 2.5 98.5 23.9903 98.5 50.5C98.5 62.0797 94.3965 72.7069 87.5674 80.998L86.8984 81.793C78.0995 92.0186 65.0552 98.5 50.5 98.5C36.2077 98.5 23.3727 92.25 14.583 82.3428L14.167 81.8682C6.89881 73.4567 2.5 62.489 2.5 50.5C2.5 23.9903 23.9903 2.5 50.5 2.5Z" fill="#00658F" fill-opacity="0.62" stroke="#00658F" stroke-width="5"/>
<circle cx="50.5" cy="35.5" r="19.5" fill="#D9D9D9"/>
<path d="M85.0032 80.1622C76.6589 89.8594 64.2965 96 50.4999 96C36.7374 96 24.402 89.8898 16.0586 80.2341C23.0118 68.4249 35.8565 60.5 50.5521 60.5C65.2179 60.5 78.0402 68.3927 85.0032 80.1622Z" fill="#D9D9D9"/>
</svg>
